<svg xmlns="http://www.w3.org/2000/svg" width="880" height="280" viewBox="0 0 880 280" font-family="ui-monospace, SFMono-Regular, Menlo, Consolas, 'Liberation Mono', monospace">
<defs>
<radialGradient id="bg" cx="34%" cy="42%" r="85%"><stop offset="0%" stop-color="#0e1524"/><stop offset="55%" stop-color="#0a0e16"/><stop offset="100%" stop-color="#05070c"/></radialGradient>
<radialGradient id="ndot" cx="50%" cy="50%" r="50%"><stop offset="0%" stop-color="#bdf3ff"/><stop offset="40%" stop-color="#38bdf8"/><stop offset="100%" stop-color="#0b4a6b" stop-opacity="0"/></radialGradient>
<radialGradient id="odot" cx="50%" cy="50%" r="50%"><stop offset="0%" stop-color="#ffffff"/><stop offset="35%" stop-color="#7dd3fc"/><stop offset="100%" stop-color="#1e3a8a" stop-opacity="0"/></radialGradient>
<linearGradient id="edge" x1="0" y1="0" x2="1" y2="0"><stop offset="0%" stop-color="#1e90c8"/><stop offset="100%" stop-color="#818cf8"/></linearGradient>
<radialGradient id="halo" cx="50%" cy="50%" r="50%"><stop offset="0%" stop-color="#7dd3fc"/><stop offset="100%" stop-color="#7dd3fc" stop-opacity="0"/></radialGradient>
<linearGradient id="sep" x1="0" y1="0" x2="0" y2="1"><stop offset="0%" stop-color="#38bdf8" stop-opacity="0"/><stop offset="35%" stop-color="#38bdf8" stop-opacity=".34"/><stop offset="65%" stop-color="#818cf8" stop-opacity=".28"/><stop offset="100%" stop-color="#818cf8" stop-opacity="0"/></linearGradient>
<filter id="g" x="-120%" y="-120%" width="340%" height="340%"><feGaussianBlur stdDeviation="2.4" result="b"/><feMerge><feMergeNode in="b"/><feMergeNode in="b"/><feMergeNode in="SourceGraphic"/></feMerge></filter>
<filter id="gbig" x="-150%" y="-150%" width="400%" height="400%"><feGaussianBlur stdDeviation="9"/></filter>
<filter id="gtext" x="-30%" y="-60%" width="160%" height="220%"><feGaussianBlur stdDeviation="1.1" result="b"/><feMerge><feMergeNode in="b"/><feMergeNode in="SourceGraphic"/></feMerge></filter>
<style>
@keyframes flare{0%{opacity:.72}12%{opacity:0}100%{opacity:0}}
.h{animation:flare 3s linear infinite}
.hi{animation-delay:0s}.ha{animation-delay:-2.25s}.hb{animation-delay:-1.5s}.ho{animation-delay:-.75s}
</style>
</defs>
<rect width="880" height="280" fill="url(#bg)"/>
<g stroke="#1b2b44" stroke-width="1" opacity="0.16">
<line x1="0" y1="0" x2="0" y2="280"/><line x1="44" y1="0" x2="44" y2="280"/><line x1="88" y1="0" x2="88" y2="280"/><line x1="132" y1="0" x2="132" y2="280"/><line x1="176" y1="0" x2="176" y2="280"/><line x1="220" y1="0" x2="220" y2="280"/><line x1="264" y1="0" x2="264" y2="280"/><line x1="308" y1="0" x2="308" y2="280"/><line x1="352" y1="0" x2="352" y2="280"/><line x1="396" y1="0" x2="396" y2="280"/><line x1="440" y1="0" x2="440" y2="280"/><line x1="484" y1="0" x2="484" y2="280"/><line x1="528" y1="0" x2="528" y2="280"/><line x1="572" y1="0" x2="572" y2="280"/><line x1="616" y1="0" x2="616" y2="280"/><line x1="660" y1="0" x2="660" y2="280"/><line x1="704" y1="0" x2="704" y2="280"/><line x1="748" y1="0" x2="748" y2="280"/><line x1="792" y1="0" x2="792" y2="280"/><line x1="836" y1="0" x2="836" y2="280"/><line x1="880" y1="0" x2="880" y2="280"/><line x1="0" y1="0" x2="880" y2="0"/><line x1="0" y1="44" x2="880" y2="44"/><line x1="0" y1="88" x2="880" y2="88"/><line x1="0" y1="132" x2="880" y2="132"/><line x1="0" y1="176" x2="880" y2="176"/><line x1="0" y1="220" x2="880" y2="220"/><line x1="0" y1="264" x2="880" y2="264"/>
</g>
<circle cx="150" cy="90" r="60" fill="#1e90c8" opacity="0.1" filter="url(#gbig)"><animateTransform attributeName="transform" type="translate" values="0 0;18 -10;0 0" dur="18s" repeatCount="indefinite" calcMode="spline" keyTimes="0;0.5;1" keySplines="0.4 0 0.6 1;0.4 0 0.6 1"/></circle>
<circle cx="250" cy="200" r="70" fill="#818cf8" opacity="0.08" filter="url(#gbig)"><animateTransform attributeName="transform" type="translate" values="0 0;-16 12;0 0" dur="18s" repeatCount="indefinite" calcMode="spline" keyTimes="0;0.5;1" keySplines="0.4 0 0.6 1;0.4 0 0.6 1"/></circle>
<circle cx="70" cy="200" r="45" fill="#22d3ee" opacity="0.07" filter="url(#gbig)"><animateTransform attributeName="transform" type="translate" values="0 0;10 14;0 0" dur="9s" repeatCount="indefinite" calcMode="spline" keyTimes="0;0.5;1" keySplines="0.4 0 0.6 1;0.4 0 0.6 1"/></circle>
<circle cx="470" cy="120" r="90" fill="#1e3a8a" opacity="0.1" filter="url(#gbig)"><animateTransform attributeName="transform" type="translate" values="0 0;12 -8;0 0" dur="18s" repeatCount="indefinite" calcMode="spline" keyTimes="0;0.5;1" keySplines="0.4 0 0.6 1;0.4 0 0.6 1"/></circle>
<g stroke="url(#edge)" stroke-width="0.7" opacity="0.15" fill="none">
<line x1="60" y1="74" x2="144" y2="67.5"/><line x1="60" y1="74" x2="144" y2="96.5"/><line x1="60" y1="74" x2="144" y2="125.5"/><line x1="60" y1="74" x2="144" y2="154.5"/><line x1="60" y1="74" x2="144" y2="183.5"/><line x1="60" y1="74" x2="144" y2="212.5"/><line x1="60" y1="118" x2="144" y2="67.5"/><line x1="60" y1="118" x2="144" y2="96.5"/><line x1="60" y1="118" x2="144" y2="125.5"/><line x1="60" y1="118" x2="144" y2="154.5"/><line x1="60" y1="118" x2="144" y2="183.5"/><line x1="60" y1="118" x2="144" y2="212.5"/><line x1="60" y1="162" x2="144" y2="67.5"/><line x1="60" y1="162" x2="144" y2="96.5"/><line x1="60" y1="162" x2="144" y2="125.5"/><line x1="60" y1="162" x2="144" y2="154.5"/><line x1="60" y1="162" x2="144" y2="183.5"/><line x1="60" y1="162" x2="144" y2="212.5"/><line x1="60" y1="206" x2="144" y2="67.5"/><line x1="60" y1="206" x2="144" y2="96.5"/><line x1="60" y1="206" x2="144" y2="125.5"/><line x1="60" y1="206" x2="144" y2="154.5"/><line x1="60" y1="206" x2="144" y2="183.5"/><line x1="60" y1="206" x2="144" y2="212.5"/><line x1="144" y1="67.5" x2="228" y2="67.5"/><line x1="144" y1="67.5" x2="228" y2="96.5"/><line x1="144" y1="67.5" x2="228" y2="125.5"/><line x1="144" y1="67.5" x2="228" y2="154.5"/><line x1="144" y1="67.5" x2="228" y2="183.5"/><line x1="144" y1="67.5" x2="228" y2="212.5"/><line x1="144" y1="96.5" x2="228" y2="67.5"/><line x1="144" y1="96.5" x2="228" y2="96.5"/><line x1="144" y1="96.5" x2="228" y2="125.5"/><line x1="144" y1="96.5" x2="228" y2="154.5"/><line x1="144" y1="96.5" x2="228" y2="183.5"/><line x1="144" y1="96.5" x2="228" y2="212.5"/><line x1="144" y1="125.5" x2="228" y2="67.5"/><line x1="144" y1="125.5" x2="228" y2="96.5"/><line x1="144" y1="125.5" x2="228" y2="125.5"/><line x1="144" y1="125.5" x2="228" y2="154.5"/><line x1="144" y1="125.5" x2="228" y2="183.5"/><line x1="144" y1="125.5" x2="228" y2="212.5"/><line x1="144" y1="154.5" x2="228" y2="67.5"/><line x1="144" y1="154.5" x2="228" y2="96.5"/><line x1="144" y1="154.5" x2="228" y2="125.5"/><line x1="144" y1="154.5" x2="228" y2="154.5"/><line x1="144" y1="154.5" x2="228" y2="183.5"/><line x1="144" y1="154.5" x2="228" y2="212.5"/><line x1="144" y1="183.5" x2="228" y2="67.5"/><line x1="144" y1="183.5" x2="228" y2="96.5"/><line x1="144" y1="183.5" x2="228" y2="125.5"/><line x1="144" y1="183.5" x2="228" y2="154.5"/><line x1="144" y1="183.5" x2="228" y2="183.5"/><line x1="144" y1="183.5" x2="228" y2="212.5"/><line x1="144" y1="212.5" x2="228" y2="67.5"/><line x1="144" y1="212.5" x2="228" y2="96.5"/><line x1="144" y1="212.5" x2="228" y2="125.5"/><line x1="144" y1="212.5" x2="228" y2="154.5"/><line x1="144" y1="212.5" x2="228" y2="183.5"/><line x1="144" y1="212.5" x2="228" y2="212.5"/><line x1="228" y1="67.5" x2="300" y2="140"/><line x1="228" y1="96.5" x2="300" y2="140"/><line x1="228" y1="125.5" x2="300" y2="140"/><line x1="228" y1="154.5" x2="300" y2="140"/><line x1="228" y1="183.5" x2="300" y2="140"/><line x1="228" y1="212.5" x2="300" y2="140"/>
</g>
<g stroke="#39c6f5" stroke-width="1.3" fill="none" stroke-linecap="round" stroke-dasharray="2 14" opacity="0.5">
<line x1="60" y1="74" x2="144" y2="67.5"><animate attributeName="stroke-dashoffset" values="0;-16" dur="1.5s" begin="0s" repeatCount="indefinite"/></line><line x1="60" y1="74" x2="144" y2="96.5"><animate attributeName="stroke-dashoffset" values="0;-16" dur="1.5s" begin="0s" repeatCount="indefinite"/></line><line x1="60" y1="74" x2="144" y2="125.5"><animate attributeName="stroke-dashoffset" values="0;-16" dur="1.5s" begin="0s" repeatCount="indefinite"/></line><line x1="60" y1="74" x2="144" y2="154.5"><animate attributeName="stroke-dashoffset" values="0;-16" dur="1.5s" begin="0s" repeatCount="indefinite"/></line><line x1="60" y1="74" x2="144" y2="183.5"><animate attributeName="stroke-dashoffset" values="0;-16" dur="1.5s" begin="0s" repeatCount="indefinite"/></line><line x1="60" y1="74" x2="144" y2="212.5"><animate attributeName="stroke-dashoffset" values="0;-16" dur="1.5s" begin="0s" repeatCount="indefinite"/></line><line x1="60" y1="118" x2="144" y2="67.5"><animate attributeName="stroke-dashoffset" values="0;-16" dur="1.5s" begin="0s" repeatCount="indefinite"/></line><line x1="60" y1="118" x2="144" y2="96.5"><animate attributeName="stroke-dashoffset" values="0;-16" dur="1.5s" begin="0s" repeatCount="indefinite"/></line><line x1="60" y1="118" x2="144" y2="125.5"><animate attributeName="stroke-dashoffset" values="0;-16" dur="1.5s" begin="0s" repeatCount="indefinite"/></line><line x1="60" y1="118" x2="144" y2="154.5"><animate attributeName="stroke-dashoffset" values="0;-16" dur="1.5s" begin="0s" repeatCount="indefinite"/></line><line x1="60" y1="118" x2="144" y2="183.5"><animate attributeName="stroke-dashoffset" values="0;-16" dur="1.5s" begin="0s" repeatCount="indefinite"/></line><line x1="60" y1="118" x2="144" y2="212.5"><animate attributeName="stroke-dashoffset" values="0;-16" dur="1.5s" begin="0s" repeatCount="indefinite"/></line><line x1="60" y1="162" x2="144" y2="67.5"><animate attributeName="stroke-dashoffset" values="0;-16" dur="1.5s" begin="0s" repeatCount="indefinite"/></line><line x1="60" y1="162" x2="144" y2="96.5"><animate attributeName="stroke-dashoffset" values="0;-16" dur="1.5s" begin="0s" repeatCount="indefinite"/></line><line x1="60" y1="162" x2="144" y2="125.5"><animate attributeName="stroke-dashoffset" values="0;-16" dur="1.5s" begin="0s" repeatCount="indefinite"/></line><line x1="60" y1="162" x2="144" y2="154.5"><animate attributeName="stroke-dashoffset" values="0;-16" dur="1.5s" begin="0s" repeatCount="indefinite"/></line><line x1="60" y1="162" x2="144" y2="183.5"><animate attributeName="stroke-dashoffset" values="0;-16" dur="1.5s" begin="0s" repeatCount="indefinite"/></line><line x1="60" y1="162" x2="144" y2="212.5"><animate attributeName="stroke-dashoffset" values="0;-16" dur="1.5s" begin="0s" repeatCount="indefinite"/></line><line x1="60" y1="206" x2="144" y2="67.5"><animate attributeName="stroke-dashoffset" values="0;-16" dur="1.5s" begin="0s" repeatCount="indefinite"/></line><line x1="60" y1="206" x2="144" y2="96.5"><animate attributeName="stroke-dashoffset" values="0;-16" dur="1.5s" begin="0s" repeatCount="indefinite"/></line><line x1="60" y1="206" x2="144" y2="125.5"><animate attributeName="stroke-dashoffset" values="0;-16" dur="1.5s" begin="0s" repeatCount="indefinite"/></line><line x1="60" y1="206" x2="144" y2="154.5"><animate attributeName="stroke-dashoffset" values="0;-16" dur="1.5s" begin="0s" repeatCount="indefinite"/></line><line x1="60" y1="206" x2="144" y2="183.5"><animate attributeName="stroke-dashoffset" values="0;-16" dur="1.5s" begin="0s" repeatCount="indefinite"/></line><line x1="60" y1="206" x2="144" y2="212.5"><animate attributeName="stroke-dashoffset" values="0;-16" dur="1.5s" begin="0s" repeatCount="indefinite"/></line><line x1="144" y1="67.5" x2="228" y2="67.5"><animate attributeName="stroke-dashoffset" values="0;-16" dur="1.5s" begin="-0.5s" repeatCount="indefinite"/></line><line x1="144" y1="67.5" x2="228" y2="96.5"><animate attributeName="stroke-dashoffset" values="0;-16" dur="1.5s" begin="-0.5s" repeatCount="indefinite"/></line><line x1="144" y1="67.5" x2="228" y2="125.5"><animate attributeName="stroke-dashoffset" values="0;-16" dur="1.5s" begin="-0.5s" repeatCount="indefinite"/></line><line x1="144" y1="67.5" x2="228" y2="154.5"><animate attributeName="stroke-dashoffset" values="0;-16" dur="1.5s" begin="-0.5s" repeatCount="indefinite"/></line><line x1="144" y1="67.5" x2="228" y2="183.5"><animate attributeName="stroke-dashoffset" values="0;-16" dur="1.5s" begin="-0.5s" repeatCount="indefinite"/></line><line x1="144" y1="67.5" x2="228" y2="212.5"><animate attributeName="stroke-dashoffset" values="0;-16" dur="1.5s" begin="-0.5s" repeatCount="indefinite"/></line><line x1="144" y1="96.5" x2="228" y2="67.5"><animate attributeName="stroke-dashoffset" values="0;-16" dur="1.5s" begin="-0.5s" repeatCount="indefinite"/></line><line x1="144" y1="96.5" x2="228" y2="96.5"><animate attributeName="stroke-dashoffset" values="0;-16" dur="1.5s" begin="-0.5s" repeatCount="indefinite"/></line><line x1="144" y1="96.5" x2="228" y2="125.5"><animate attributeName="stroke-dashoffset" values="0;-16" dur="1.5s" begin="-0.5s" repeatCount="indefinite"/></line><line x1="144" y1="96.5" x2="228" y2="154.5"><animate attributeName="stroke-dashoffset" values="0;-16" dur="1.5s" begin="-0.5s" repeatCount="indefinite"/></line><line x1="144" y1="96.5" x2="228" y2="183.5"><animate attributeName="stroke-dashoffset" values="0;-16" dur="1.5s" begin="-0.5s" repeatCount="indefinite"/></line><line x1="144" y1="96.5" x2="228" y2="212.5"><animate attributeName="stroke-dashoffset" values="0;-16" dur="1.5s" begin="-0.5s" repeatCount="indefinite"/></line><line x1="144" y1="125.5" x2="228" y2="67.5"><animate attributeName="stroke-dashoffset" values="0;-16" dur="1.5s" begin="-0.5s" repeatCount="indefinite"/></line><line x1="144" y1="125.5" x2="228" y2="96.5"><animate attributeName="stroke-dashoffset" values="0;-16" dur="1.5s" begin="-0.5s" repeatCount="indefinite"/></line><line x1="144" y1="125.5" x2="228" y2="125.5"><animate attributeName="stroke-dashoffset" values="0;-16" dur="1.5s" begin="-0.5s" repeatCount="indefinite"/></line><line x1="144" y1="125.5" x2="228" y2="154.5"><animate attributeName="stroke-dashoffset" values="0;-16" dur="1.5s" begin="-0.5s" repeatCount="indefinite"/></line><line x1="144" y1="125.5" x2="228" y2="183.5"><animate attributeName="stroke-dashoffset" values="0;-16" dur="1.5s" begin="-0.5s" repeatCount="indefinite"/></line><line x1="144" y1="125.5" x2="228" y2="212.5"><animate attributeName="stroke-dashoffset" values="0;-16" dur="1.5s" begin="-0.5s" repeatCount="indefinite"/></line><line x1="144" y1="154.5" x2="228" y2="67.5"><animate attributeName="stroke-dashoffset" values="0;-16" dur="1.5s" begin="-0.5s" repeatCount="indefinite"/></line><line x1="144" y1="154.5" x2="228" y2="96.5"><animate attributeName="stroke-dashoffset" values="0;-16" dur="1.5s" begin="-0.5s" repeatCount="indefinite"/></line><line x1="144" y1="154.5" x2="228" y2="125.5"><animate attributeName="stroke-dashoffset" values="0;-16" dur="1.5s" begin="-0.5s" repeatCount="indefinite"/></line><line x1="144" y1="154.5" x2="228" y2="154.5"><animate attributeName="stroke-dashoffset" values="0;-16" dur="1.5s" begin="-0.5s" repeatCount="indefinite"/></line><line x1="144" y1="154.5" x2="228" y2="183.5"><animate attributeName="stroke-dashoffset" values="0;-16" dur="1.5s" begin="-0.5s" repeatCount="indefinite"/></line><line x1="144" y1="154.5" x2="228" y2="212.5"><animate attributeName="stroke-dashoffset" values="0;-16" dur="1.5s" begin="-0.5s" repeatCount="indefinite"/></line><line x1="144" y1="183.5" x2="228" y2="67.5"><animate attributeName="stroke-dashoffset" values="0;-16" dur="1.5s" begin="-0.5s" repeatCount="indefinite"/></line><line x1="144" y1="183.5" x2="228" y2="96.5"><animate attributeName="stroke-dashoffset" values="0;-16" dur="1.5s" begin="-0.5s" repeatCount="indefinite"/></line><line x1="144" y1="183.5" x2="228" y2="125.5"><animate attributeName="stroke-dashoffset" values="0;-16" dur="1.5s" begin="-0.5s" repeatCount="indefinite"/></line><line x1="144" y1="183.5" x2="228" y2="154.5"><animate attributeName="stroke-dashoffset" values="0;-16" dur="1.5s" begin="-0.5s" repeatCount="indefinite"/></line><line x1="144" y1="183.5" x2="228" y2="183.5"><animate attributeName="stroke-dashoffset" values="0;-16" dur="1.5s" begin="-0.5s" repeatCount="indefinite"/></line><line x1="144" y1="183.5" x2="228" y2="212.5"><animate attributeName="stroke-dashoffset" values="0;-16" dur="1.5s" begin="-0.5s" repeatCount="indefinite"/></line><line x1="144" y1="212.5" x2="228" y2="67.5"><animate attributeName="stroke-dashoffset" values="0;-16" dur="1.5s" begin="-0.5s" repeatCount="indefinite"/></line><line x1="144" y1="212.5" x2="228" y2="96.5"><animate attributeName="stroke-dashoffset" values="0;-16" dur="1.5s" begin="-0.5s" repeatCount="indefinite"/></line><line x1="144" y1="212.5" x2="228" y2="125.5"><animate attributeName="stroke-dashoffset" values="0;-16" dur="1.5s" begin="-0.5s" repeatCount="indefinite"/></line><line x1="144" y1="212.5" x2="228" y2="154.5"><animate attributeName="stroke-dashoffset" values="0;-16" dur="1.5s" begin="-0.5s" repeatCount="indefinite"/></line><line x1="144" y1="212.5" x2="228" y2="183.5"><animate attributeName="stroke-dashoffset" values="0;-16" dur="1.5s" begin="-0.5s" repeatCount="indefinite"/></line><line x1="144" y1="212.5" x2="228" y2="212.5"><animate attributeName="stroke-dashoffset" values="0;-16" dur="1.5s" begin="-0.5s" repeatCount="indefinite"/></line><line x1="228" y1="67.5" x2="300" y2="140"><animate attributeName="stroke-dashoffset" values="0;-16" dur="1.5s" begin="-1s" repeatCount="indefinite"/></line><line x1="228" y1="96.5" x2="300" y2="140"><animate attributeName="stroke-dashoffset" values="0;-16" dur="1.5s" begin="-1s" repeatCount="indefinite"/></line><line x1="228" y1="125.5" x2="300" y2="140"><animate attributeName="stroke-dashoffset" values="0;-16" dur="1.5s" begin="-1s" repeatCount="indefinite"/></line><line x1="228" y1="154.5" x2="300" y2="140"><animate attributeName="stroke-dashoffset" values="0;-16" dur="1.5s" begin="-1s" repeatCount="indefinite"/></line><line x1="228" y1="183.5" x2="300" y2="140"><animate attributeName="stroke-dashoffset" values="0;-16" dur="1.5s" begin="-1s" repeatCount="indefinite"/></line><line x1="228" y1="212.5" x2="300" y2="140"><animate attributeName="stroke-dashoffset" values="0;-16" dur="1.5s" begin="-1s" repeatCount="indefinite"/></line>
</g>
<g fill="#bdf3ff" filter="url(#g)">
<circle r="2.4" opacity="0.9"><animateMotion dur="3s" repeatCount="indefinite" begin="0.000s" path="M60 74 L144 67.5 L228 96.5 L300 140"/><animate attributeName="opacity" dur="3s" begin="0.000s" repeatCount="indefinite" values="0;1;1;0.9;0" keyTimes="0;0.12;0.7;0.92;1"/></circle>
<circle r="2.4" opacity="0.9"><animateMotion dur="3s" repeatCount="indefinite" begin="-0.375s" path="M60 118 L144 125.5 L228 154.5 L300 140"/><animate attributeName="opacity" dur="3s" begin="-0.375s" repeatCount="indefinite" values="0;1;1;0.9;0" keyTimes="0;0.12;0.7;0.92;1"/></circle>
<circle r="2.4" opacity="0.9"><animateMotion dur="3s" repeatCount="indefinite" begin="-0.750s" path="M60 162 L144 183.5 L228 125.5 L300 140"/><animate attributeName="opacity" dur="3s" begin="-0.750s" repeatCount="indefinite" values="0;1;1;0.9;0" keyTimes="0;0.12;0.7;0.92;1"/></circle>
<circle r="2.4" opacity="0.9"><animateMotion dur="3s" repeatCount="indefinite" begin="-1.125s" path="M60 206 L144 212.5 L228 183.5 L300 140"/><animate attributeName="opacity" dur="3s" begin="-1.125s" repeatCount="indefinite" values="0;1;1;0.9;0" keyTimes="0;0.12;0.7;0.92;1"/></circle>
<circle r="2.4" opacity="0.9"><animateMotion dur="3s" repeatCount="indefinite" begin="-1.500s" path="M60 74 L144 96.5 L228 67.5 L300 140"/><animate attributeName="opacity" dur="3s" begin="-1.500s" repeatCount="indefinite" values="0;1;1;0.9;0" keyTimes="0;0.12;0.7;0.92;1"/></circle>
<circle r="2.4" opacity="0.9"><animateMotion dur="3s" repeatCount="indefinite" begin="-1.875s" path="M60 162 L144 154.5 L228 212.5 L300 140"/><animate attributeName="opacity" dur="3s" begin="-1.875s" repeatCount="indefinite" values="0;1;1;0.9;0" keyTimes="0;0.12;0.7;0.92;1"/></circle>
<circle r="2.4" opacity="0.9"><animateMotion dur="3s" repeatCount="indefinite" begin="-2.250s" path="M60 118 L144 67.5 L228 154.5 L300 140"/><animate attributeName="opacity" dur="3s" begin="-2.250s" repeatCount="indefinite" values="0;1;1;0.9;0" keyTimes="0;0.12;0.7;0.92;1"/></circle>
<circle r="2.4" opacity="0.9"><animateMotion dur="3s" repeatCount="indefinite" begin="-2.625s" path="M60 206 L144 183.5 L228 96.5 L300 140"/><animate attributeName="opacity" dur="3s" begin="-2.625s" repeatCount="indefinite" values="0;1;1;0.9;0" keyTimes="0;0.12;0.7;0.92;1"/></circle>
</g>
<g>
<circle class="h hi" cx="60" cy="74" r="10" fill="url(#halo)" opacity="0"/>
<circle class="h hi" cx="60" cy="118" r="10" fill="url(#halo)" opacity="0"/>
<circle class="h hi" cx="60" cy="162" r="10" fill="url(#halo)" opacity="0"/>
<circle class="h hi" cx="60" cy="206" r="10" fill="url(#halo)" opacity="0"/>
<circle class="h ha" cx="144" cy="67.5" r="10" fill="url(#halo)" opacity="0"/>
<circle class="h ha" cx="144" cy="96.5" r="10" fill="url(#halo)" opacity="0"/>
<circle class="h ha" cx="144" cy="125.5" r="10" fill="url(#halo)" opacity="0"/>
<circle class="h ha" cx="144" cy="154.5" r="10" fill="url(#halo)" opacity="0"/>
<circle class="h ha" cx="144" cy="183.5" r="10" fill="url(#halo)" opacity="0"/>
<circle class="h ha" cx="144" cy="212.5" r="10" fill="url(#halo)" opacity="0"/>
<circle class="h hb" cx="228" cy="67.5" r="10" fill="url(#halo)" opacity="0"/>
<circle class="h hb" cx="228" cy="96.5" r="10" fill="url(#halo)" opacity="0"/>
<circle class="h hb" cx="228" cy="125.5" r="10" fill="url(#halo)" opacity="0"/>
<circle class="h hb" cx="228" cy="154.5" r="10" fill="url(#halo)" opacity="0"/>
<circle class="h hb" cx="228" cy="183.5" r="10" fill="url(#halo)" opacity="0"/>
<circle class="h hb" cx="228" cy="212.5" r="10" fill="url(#halo)" opacity="0"/>
<circle class="h ho" cx="300" cy="140" r="16" fill="url(#halo)" opacity="0"/>
</g>
<g>
<circle cx="60" cy="74" r="4.6" fill="url(#ndot)" filter="url(#g)"/><circle cx="60" cy="118" r="4.6" fill="url(#ndot)" filter="url(#g)"/><circle cx="60" cy="162" r="4.6" fill="url(#ndot)" filter="url(#g)"/><circle cx="60" cy="206" r="4.6" fill="url(#ndot)" filter="url(#g)"/><circle cx="144" cy="67.5" r="4.6" fill="url(#ndot)" filter="url(#g)"/><circle cx="144" cy="96.5" r="4.6" fill="url(#ndot)" filter="url(#g)"/><circle cx="144" cy="125.5" r="4.6" fill="url(#ndot)" filter="url(#g)"/><circle cx="144" cy="154.5" r="4.6" fill="url(#ndot)" filter="url(#g)"/><circle cx="144" cy="183.5" r="4.6" fill="url(#ndot)" filter="url(#g)"/><circle cx="144" cy="212.5" r="4.6" fill="url(#ndot)" filter="url(#g)"/><circle cx="228" cy="67.5" r="4.6" fill="url(#ndot)" filter="url(#g)"/><circle cx="228" cy="96.5" r="4.6" fill="url(#ndot)" filter="url(#g)"/><circle cx="228" cy="125.5" r="4.6" fill="url(#ndot)" filter="url(#g)"/><circle cx="228" cy="154.5" r="4.6" fill="url(#ndot)" filter="url(#g)"/><circle cx="228" cy="183.5" r="4.6" fill="url(#ndot)" filter="url(#g)"/><circle cx="228" cy="212.5" r="4.6" fill="url(#ndot)" filter="url(#g)"/><circle cx="300" cy="140" r="8" fill="url(#odot)" filter="url(#g)"/><circle cx="300" cy="140" r="3" fill="#ffffff"/>
</g>
<line x1="300" y1="140" x2="356" y2="150" stroke="#7dd3fc" stroke-width="2.4" stroke-linecap="round" filter="url(#g)" opacity="0.05"><animate attributeName="opacity" dur="0.75s" repeatCount="indefinite" values="0.05;0.85;0.05" keyTimes="0;0.16;1"/></line>
<circle cx="300" cy="140" r="12" fill="none" stroke="#bdf3ff" stroke-width="2" filter="url(#g)" opacity="0"><animate attributeName="opacity" dur="0.75s" repeatCount="indefinite" values="0;0.9;0" keyTimes="0;0.16;1"/><animate attributeName="r" dur="0.75s" repeatCount="indefinite" values="8;15;8" keyTimes="0;0.5;1"/></circle>
<line x1="372" y1="44" x2="372" y2="236" stroke="url(#sep)" stroke-width="1.5"/>
<text x="864" y="32" text-anchor="end" font-size="12.5" letter-spacing="1.5" fill="#46566e">PROFILE // SYSTEMS + AI</text>
<text x="398" y="196" font-size="12.5" letter-spacing="1" fill="#5aa6c9">&gt; inference in progress</text>
<text x="398" y="118" xml:space="preserve" font-family="-apple-system,BlinkMacSystemFont,'Segoe UI',Roboto,sans-serif" font-size="47" font-weight="700" fill="#1d6fa5" opacity="0.5" filter="url(#gtext)"><tspan opacity="0">Anh <animate attributeName="opacity" dur="18s" repeatCount="indefinite" values="0;0;1;1;0;0" keyTimes="0;0.02222;0.03778;0.92778;0.96667;1"/></tspan><tspan opacity="0">Khoa <animate attributeName="opacity" dur="18s" repeatCount="indefinite" values="0;0;1;1;0;0" keyTimes="0;0.03889;0.05444;0.92778;0.96667;1"/></tspan><tspan opacity="0">Nguyen<animate attributeName="opacity" dur="18s" repeatCount="indefinite" values="0;0;1;1;0;0" keyTimes="0;0.05556;0.07111;0.92778;0.96667;1"/></tspan></text>
<text x="398" y="118" xml:space="preserve" font-family="-apple-system,BlinkMacSystemFont,'Segoe UI',Roboto,sans-serif" font-size="47" font-weight="700" fill="#e8eef6"><tspan opacity="0">Anh <animate attributeName="opacity" dur="18s" repeatCount="indefinite" values="0;0;1;1;0;0" keyTimes="0;0.02222;0.03778;0.92778;0.96667;1"/></tspan><tspan opacity="0">Khoa <animate attributeName="opacity" dur="18s" repeatCount="indefinite" values="0;0;1;1;0;0" keyTimes="0;0.03889;0.05444;0.92778;0.96667;1"/></tspan><tspan opacity="0">Nguyen<animate attributeName="opacity" dur="18s" repeatCount="indefinite" values="0;0;1;1;0;0" keyTimes="0;0.05556;0.07111;0.92778;0.96667;1"/></tspan></text>
<text x="398" y="168" xml:space="preserve" font-size="19" letter-spacing="0.4" fill="#7dd3fc"><tspan opacity="0">Software <animate attributeName="opacity" dur="18s" repeatCount="indefinite" values="0;0;1;1;0;0" keyTimes="0;0.13333;0.14333;0.3;0.32222;1"/></tspan><tspan opacity="0">Engineer <animate attributeName="opacity" dur="18s" repeatCount="indefinite" values="0;0;1;1;0;0" keyTimes="0;0.15111;0.16111;0.3;0.32222;1"/></tspan><tspan opacity="0">· <animate attributeName="opacity" dur="18s" repeatCount="indefinite" values="0;0;1;1;0;0" keyTimes="0;0.16889;0.17889;0.3;0.32222;1"/></tspan><tspan opacity="0">AI <animate attributeName="opacity" dur="18s" repeatCount="indefinite" values="0;0;1;1;0;0" keyTimes="0;0.18667;0.19667;0.3;0.32222;1"/></tspan><tspan opacity="0">Engineer<animate attributeName="opacity" dur="18s" repeatCount="indefinite" values="0;0;1;1;0;0" keyTimes="0;0.20444;0.21444;0.3;0.32222;1"/></tspan></text>
<text x="398" y="168" xml:space="preserve" font-size="19" letter-spacing="0.4" fill="#7dd3fc"><tspan opacity="0">C++ <animate attributeName="opacity" dur="18s" repeatCount="indefinite" values="0;0;1;1;0;0" keyTimes="0;0.32778;0.33778;0.49444;0.51667;1"/></tspan><tspan opacity="0">· <animate attributeName="opacity" dur="18s" repeatCount="indefinite" values="0;0;1;1;0;0" keyTimes="0;0.34259;0.35259;0.49444;0.51667;1"/></tspan><tspan opacity="0">Python <animate attributeName="opacity" dur="18s" repeatCount="indefinite" values="0;0;1;1;0;0" keyTimes="0;0.35741;0.36741;0.49444;0.51667;1"/></tspan><tspan opacity="0">· <animate attributeName="opacity" dur="18s" repeatCount="indefinite" values="0;0;1;1;0;0" keyTimes="0;0.37222;0.38222;0.49444;0.51667;1"/></tspan><tspan opacity="0">CUDA <animate attributeName="opacity" dur="18s" repeatCount="indefinite" values="0;0;1;1;0;0" keyTimes="0;0.38704;0.39704;0.49444;0.51667;1"/></tspan><tspan opacity="0">· <animate attributeName="opacity" dur="18s" repeatCount="indefinite" values="0;0;1;1;0;0" keyTimes="0;0.40185;0.41185;0.49444;0.51667;1"/></tspan><tspan opacity="0">PyTorch<animate attributeName="opacity" dur="18s" repeatCount="indefinite" values="0;0;1;1;0;0" keyTimes="0;0.41667;0.42667;0.49444;0.51667;1"/></tspan></text>
<text x="398" y="168" xml:space="preserve" font-size="19" letter-spacing="0.4" fill="#7dd3fc"><tspan opacity="0">Vision <animate attributeName="opacity" dur="18s" repeatCount="indefinite" values="0;0;1;1;0;0" keyTimes="0;0.52222;0.53222;0.68889;0.71111;1"/></tspan><tspan opacity="0">· <animate attributeName="opacity" dur="18s" repeatCount="indefinite" values="0;0;1;1;0;0" keyTimes="0;0.53704;0.54704;0.68889;0.71111;1"/></tspan><tspan opacity="0">generative <animate attributeName="opacity" dur="18s" repeatCount="indefinite" values="0;0;1;1;0;0" keyTimes="0;0.55185;0.56185;0.68889;0.71111;1"/></tspan><tspan opacity="0">AI <animate attributeName="opacity" dur="18s" repeatCount="indefinite" values="0;0;1;1;0;0" keyTimes="0;0.56667;0.57667;0.68889;0.71111;1"/></tspan><tspan opacity="0">· <animate attributeName="opacity" dur="18s" repeatCount="indefinite" values="0;0;1;1;0;0" keyTimes="0;0.58148;0.59148;0.68889;0.71111;1"/></tspan><tspan opacity="0">diffusion<animate attributeName="opacity" dur="18s" repeatCount="indefinite" values="0;0;1;1;0;0" keyTimes="0;0.5963;0.6063;0.68889;0.71111;1"/></tspan></text>
<text x="398" y="168" xml:space="preserve" font-size="19" letter-spacing="0.4" fill="#7dd3fc"><tspan opacity="0">The <animate attributeName="opacity" dur="18s" repeatCount="indefinite" values="0;0;1;1;0;0" keyTimes="0;0.71667;0.72667;0.88889;0.91111;1"/></tspan><tspan opacity="0">student <animate attributeName="opacity" dur="18s" repeatCount="indefinite" values="0;0;1;1;0;0" keyTimes="0;0.73889;0.74889;0.88889;0.91111;1"/></tspan><tspan opacity="0">of <animate attributeName="opacity" dur="18s" repeatCount="indefinite" values="0;0;1;1;0;0" keyTimes="0;0.76111;0.77111;0.88889;0.91111;1"/></tspan><tspan opacity="0">experience<animate attributeName="opacity" dur="18s" repeatCount="indefinite" values="0;0;1;1;0;0" keyTimes="0;0.78333;0.79333;0.88889;0.91111;1"/></tspan></text>
<rect y="150" width="2.6" height="22" rx="1" fill="#bdf3ff" filter="url(#g)" x="398"><animate attributeName="x" dur="18s" repeatCount="indefinite" calcMode="discrete" keyTimes="0;0.14333;0.16111;0.17889;0.19667;0.21444;0.32222;0.33778;0.35259;0.36741;0.38222;0.39704;0.41185;0.42667;0.51667;0.53222;0.54704;0.56185;0.57667;0.59148;0.6063;0.71111;0.72667;0.74889;0.77111;0.79333;0.91111;1" values="398;500.6;603.2;626;660.2;751.4;398;443.6;466.4;546.2;569;626;648.8;728.6;398;477.8;500.6;626;660.2;683;785.6;398;443.6;534.8;569;694.4;398;398"/><animate attributeName="opacity" dur="1.2s" repeatCount="indefinite" values="1;1;0;0;1" keyTimes="0;0.45;0.5;0.95;1"/></rect>
</svg>
